<svg width="16" height="16" viewBox="0 0 16 16" fill="none" xmlns="http://www.w3.org/2000/svg">
<path d="M8.00001 15.0229C9.02077 14.5019 9.29357 13.1704 10.0958 12.3521C10.6104 11.8272 11.3792 11.6338 11.864 11.0814C12.3599 10.5163 12.6249 9.81279 12.9282 9.12484C13.2827 8.32082 13.8775 7.55048 13.807 6.6746C13.736 5.79205 13.1522 5.02008 12.546 4.37471C11.9596 3.75042 11.1502 3.43162 10.3902 3.03678C9.61129 2.63216 8.8508 2.22888 8.00001 2.01311C6.99351 1.75785 5.96529 1.46401 4.94479 1.65578C3.8261 1.86599 2.41883 2.12958 1.92432 3.15481C1.39162 4.25921 2.52996 5.51712 2.49118 6.74266C2.46132 7.6861 1.40218 8.54534 1.72569 9.43209C2.06158 10.3528 3.65786 10.2391 4.08805 11.1197C4.69468 12.3614 3.55978 14.2127 4.53807 15.1888C5.36629 16.0152 6.95793 15.5548 8.00001 15.0229Z" fill="#33A0FB"/>
<path d="M14.6027 4.97412C14.475 4.66565 14.2346 4.42536 13.9262 4.29756C13.6177 4.16976 13.2779 4.16979 12.9694 4.29756L5.32269 7.47094L2.77703 6.70284C2.58943 6.64606 2.38696 6.65767 2.2071 6.73498L1.45933 7.05647C1.39747 7.08311 1.35231 7.13765 1.33807 7.20339C1.32361 7.26892 1.34174 7.33747 1.38669 7.38734L2.90645 9.07475C3.35001 9.56694 3.97488 9.83228 4.61195 9.83228C4.90639 9.83228 5.20366 9.7755 5.48648 9.6583L14.1518 6.06313C14.3575 5.97788 14.5177 5.81774 14.6027 5.61203C14.688 5.40628 14.688 5.17982 14.6027 4.97412Z" fill="#D7DBE0"/>
<path d="M14.5669 5.11695L5.90155 8.71213C5.61874 8.82933 5.32146 8.8861 5.02703 8.8861C4.38995 8.8861 3.76509 8.62076 3.32152 8.12857L2.10568 6.77857L1.45933 7.05647C1.39747 7.08311 1.35231 7.13765 1.33807 7.20339C1.32361 7.26891 1.34174 7.33746 1.38669 7.38734L2.90645 9.07475C3.35001 9.56694 3.97488 9.83228 4.61195 9.83228C4.90639 9.83228 5.20366 9.7755 5.48648 9.6583L14.1518 6.06313C14.3575 5.97788 14.5177 5.81773 14.6027 5.61203C14.6736 5.44108 14.6821 5.25637 14.6351 5.08057C14.6123 5.09257 14.5911 5.10695 14.5669 5.11695Z" fill="#08397B"/>
<path d="M10.6586 8.18162L7.96365 9.29792L7.54694 8.28174L10.2397 7.16635C10.4532 7.07793 10.6978 7.18008 10.7851 7.39406L10.8841 7.63714C10.9722 7.84979 10.8712 8.09354 10.6586 8.18162Z" fill="#8A8895"/>
<path d="M12.7098 5.51618C12.6557 5.51618 12.6016 5.49339 12.5641 5.45372C12.5245 5.41627 12.5015 5.36197 12.5015 5.30579C12.5015 5.25167 12.5245 5.19734 12.5641 5.15989C12.639 5.08277 12.7808 5.08277 12.8577 5.15989C12.8974 5.19734 12.9182 5.25164 12.9182 5.30579C12.9182 5.36194 12.8974 5.41627 12.8577 5.45372C12.8203 5.49339 12.7662 5.51618 12.7098 5.51618Z" fill="#08397B"/>
<path d="M6.35917 8.14566C6.30281 8.14566 6.24869 8.1249 6.21124 8.08523C6.17158 8.04778 6.15082 7.99366 6.15082 7.9373C6.15082 7.88318 6.17158 7.82906 6.21124 7.78937C6.28836 7.71428 6.42793 7.71225 6.50505 7.7914C6.54453 7.82903 6.56751 7.88315 6.56751 7.9373C6.56751 7.99366 6.54451 8.04575 6.50505 8.08523C6.46742 8.1249 6.4133 8.14566 6.35917 8.14566Z" fill="#08397B"/>
<path d="M5.77989 8.38532C5.72577 8.38532 5.67165 8.36232 5.63399 8.3249C5.5945 8.28523 5.57153 8.23108 5.57153 8.17696C5.57153 8.12263 5.59453 8.06851 5.63399 8.02903C5.70908 7.95191 5.85068 7.95191 5.9278 8.02903C5.96746 8.06851 5.98822 8.12263 5.98822 8.17696C5.98822 8.23108 5.96746 8.28521 5.9278 8.3249C5.89037 8.36438 5.83625 8.38532 5.77989 8.38532Z" fill="#08397B"/>
<path d="M12.1327 5.75382C12.0786 5.75382 12.0243 5.73286 11.9848 5.6934C11.9473 5.65577 11.9244 5.60165 11.9244 5.54547C11.9244 5.49114 11.9474 5.43702 11.9868 5.39753C12.064 5.32245 12.2035 5.32042 12.2806 5.39753C12.3203 5.43702 12.3411 5.49114 12.3411 5.54547C12.3411 5.59959 12.3203 5.65371 12.2806 5.6934C12.241 5.73288 12.1889 5.75382 12.1327 5.75382Z" fill="#08397B"/>
<path d="M11.2281 6.09627C11.1716 6.0167 11.0674 5.98681 10.9785 6.02444L7.12855 7.61907C7.0844 7.63738 7.04776 7.67036 7.02497 7.71247L4.98148 11.4908C4.93957 11.5683 4.95095 11.6639 5.01018 11.7294C5.05047 11.7742 5.10704 11.7982 5.16483 11.7982C5.19169 11.7982 5.21875 11.7931 5.24461 11.7824L6.97699 11.0647C7.00588 11.0527 7.03174 11.0344 7.05247 11.011L11.2135 6.3557C11.2784 6.28325 11.2845 6.17563 11.2281 6.09627Z" fill="#B8BAC0"/>
<path d="M14.204 4.46289L13.5469 4.735C13.4407 4.77897 13.3902 4.90083 13.4342 5.00725C13.4673 5.08741 13.545 5.13586 13.6266 5.13586C13.6533 5.13586 13.6804 5.13078 13.7064 5.12L14.5043 4.78957C14.4247 4.66224 14.3226 4.55332 14.204 4.46289Z" fill="#08397B"/>
</svg>
