<svg width="150" height="150" viewBox="0 0 150 150" fill="none" xmlns="http://www.w3.org/2000/svg">
<path d="M75 140.84C84.5696 135.955 87.1271 123.473 94.6485 115.8C99.4722 110.88 106.679 109.067 111.225 103.888C115.874 98.5905 118.358 91.9947 121.202 85.5452C124.525 78.0075 130.101 70.7856 129.441 62.5743C128.775 54.3004 123.301 47.0631 117.619 41.0128C112.121 35.1601 104.533 32.1713 97.4078 28.4697C90.1057 24.6763 82.9761 20.8956 75 18.8728C65.564 16.4797 55.9245 13.725 46.3573 15.5228C35.8696 17.4935 22.6765 19.9646 18.0404 29.5762C13.0464 39.9299 23.7182 51.7228 23.3547 63.2123C23.0748 72.0571 13.1453 80.1124 16.1783 88.4257C19.3272 97.057 34.2924 95.9917 38.3254 104.247C44.0125 115.888 33.3728 133.244 42.5443 142.395C50.3089 150.142 65.2305 145.826 75 140.84Z" fill="white"/>
<path d="M136.901 46.6323C135.703 43.7403 133.45 41.4876 130.558 40.2895C127.666 39.0914 124.48 39.0916 121.589 40.2895L49.9005 70.04L26.035 62.8389C24.2762 62.3067 22.3781 62.4156 20.6918 63.1402L13.6815 66.1543C13.1016 66.404 12.6782 66.9153 12.5447 67.5316C12.4091 68.1459 12.5791 68.7886 13.0005 69.2562L27.2482 85.0756C31.4067 89.6899 37.2648 92.1775 43.2374 92.1775C45.9977 92.1775 48.7846 91.6452 51.436 90.5464L132.674 56.8417C134.602 56.0425 136.103 54.5411 136.901 52.6127C137.7 50.6838 137.7 48.5607 136.901 46.6323Z" fill="#D7DBE0"/>
<path d="M136.565 47.9713L55.3274 81.6761C52.6759 82.7748 49.889 83.3071 47.1287 83.3071C41.1561 83.3071 35.298 80.8195 31.1396 76.2052L19.741 63.549L13.6815 66.1543C13.1016 66.4041 12.6782 66.9153 12.5447 67.5316C12.4091 68.146 12.5791 68.7886 13.0005 69.2562L27.2482 85.0756C31.4067 89.6899 37.2648 92.1775 43.2374 92.1775C45.9977 92.1775 48.7846 91.6452 51.4361 90.5465L132.674 56.8417C134.602 56.0425 136.103 54.5411 136.901 52.6127C137.565 51.01 137.645 49.2783 137.205 47.6302C136.99 47.7427 136.791 47.8775 136.565 47.9713Z" fill="#08397B"/>
<path d="M99.925 76.7028L74.6596 87.1681L70.7529 77.6414L95.9975 67.1846C97.999 66.3557 100.293 67.3133 101.11 69.3194L102.039 71.5982C102.865 73.5919 101.918 75.877 99.925 76.7028Z" fill="#8A8895"/>
<path d="M119.155 51.7139C118.647 51.7139 118.14 51.5002 117.789 51.1284C117.417 50.7773 117.201 50.2682 117.201 49.7415C117.201 49.2341 117.417 48.7248 117.789 48.3737C118.491 47.6507 119.82 47.6507 120.541 48.3737C120.913 48.7248 121.108 49.2339 121.108 49.7415C121.108 50.2679 120.913 50.7773 120.541 51.1284C120.19 51.5002 119.683 51.7139 119.155 51.7139Z" fill="#08397B"/>
<path d="M59.6177 76.3654C59.0893 76.3654 58.5819 76.1708 58.2308 75.7989C57.8589 75.4478 57.6643 74.9404 57.6643 74.412C57.6643 73.9046 57.8589 73.3973 58.2308 73.0251C58.9538 72.3212 60.2623 72.3022 60.9852 73.0442C61.3554 73.397 61.5708 73.9044 61.5708 74.412C61.5708 74.9404 61.3552 75.4287 60.9852 75.7989C60.6324 76.1708 60.125 76.3654 59.6177 76.3654Z" fill="#08397B"/>
<path d="M54.1869 78.6125C53.6795 78.6125 53.1721 78.3969 52.819 78.046C52.4489 77.6741 52.2335 77.1665 52.2335 76.6591C52.2335 76.1498 52.4491 75.6424 52.819 75.2722C53.523 74.5493 54.8505 74.5493 55.5735 75.2722C55.9454 75.6424 56.14 76.1498 56.14 76.6591C56.14 77.1665 55.9454 77.6739 55.5735 78.046C55.2226 78.4162 54.7152 78.6125 54.1869 78.6125Z" fill="#08397B"/>
<path d="M113.745 53.9419C113.238 53.9419 112.728 53.7454 112.358 53.3755C112.007 53.0226 111.792 52.5153 111.792 51.9886C111.792 51.4793 112.007 50.9719 112.377 50.6017C113.1 49.8978 114.409 49.8787 115.132 50.6017C115.503 50.9719 115.698 51.4793 115.698 51.9886C115.698 52.496 115.503 53.0033 115.132 53.3755C114.76 53.7456 114.271 53.9419 113.745 53.9419Z" fill="#08397B"/>
<path d="M105.264 57.1525C104.733 56.4066 103.757 56.1263 102.923 56.4791L66.8302 71.4288C66.4163 71.6004 66.0728 71.9096 65.8591 72.3044L46.7014 107.726C46.3085 108.453 46.4152 109.349 46.9705 109.963C47.3482 110.383 47.8785 110.608 48.4204 110.608C48.6721 110.608 48.9258 110.561 49.1682 110.46L65.4094 103.732C65.6801 103.619 65.9226 103.447 66.1169 103.228L105.127 59.5847C105.735 58.9054 105.792 57.8965 105.264 57.1525Z" fill="#B8BAC0"/>
<path d="M133.162 41.8397L127.002 44.3908C126.007 44.8029 125.533 45.9454 125.946 46.9431C126.256 47.6946 126.985 48.1488 127.75 48.1488C128 48.1488 128.254 48.1012 128.498 48.0001L135.978 44.9023C135.232 43.7086 134.275 42.6875 133.162 41.8397Z" fill="#08397B"/>
</svg>
