<svg width="300" height="300" viewBox="0 0 300 300" fill="none" xmlns="http://www.w3.org/2000/svg">
<g opacity="0.4">
<path d="M150 281.679C169.139 271.911 174.254 246.945 189.297 231.601C198.944 221.76 213.359 218.134 222.449 207.776C231.748 197.181 236.716 183.989 242.403 171.09C249.05 156.015 260.203 141.571 258.881 125.149C257.55 108.601 246.603 94.1263 235.237 82.0256C224.243 70.3202 209.066 64.3426 194.816 56.9394C180.211 49.3527 165.952 41.7913 150 37.7456C131.128 32.9595 111.849 27.4499 92.7146 31.0455C71.7392 34.9871 45.3529 39.9293 36.0808 59.1524C26.0927 79.8599 47.4365 103.446 46.7094 126.425C46.1496 144.114 26.2906 160.225 32.3565 176.851C38.6544 194.114 68.5848 191.983 76.6508 208.494C88.025 231.776 66.7456 266.488 85.0886 284.79C100.618 300.284 130.461 291.652 150 281.679Z" fill="#33A0FB"/>
<path d="M273.802 93.2645C271.406 87.4807 266.9 82.9753 261.116 80.579C255.332 78.1827 248.961 78.1832 243.178 80.579L99.8009 140.08L52.0699 125.678C48.5524 124.613 44.7561 124.831 41.3836 126.281L27.363 132.309C26.2032 132.808 25.3564 133.831 25.0893 135.063C24.8183 136.292 25.1581 137.577 26.001 138.512L54.4964 170.151C62.8133 179.38 74.5295 184.355 86.4747 184.355C91.9953 184.355 97.5692 183.29 102.872 181.093L265.347 113.683C269.204 112.085 272.207 109.082 273.802 105.225C275.4 101.368 275.4 97.1214 273.802 93.2645Z" fill="#D7DBE0"/>
<path d="M273.13 95.9426L110.655 163.352C105.352 165.55 99.778 166.614 94.2573 166.614C82.3121 166.614 70.5959 161.639 62.2791 152.41L39.482 127.098L27.363 132.309C26.2032 132.808 25.3564 133.831 25.0893 135.063C24.8183 136.292 25.1581 137.577 26.001 138.512L54.4964 170.151C62.8133 179.38 74.5295 184.355 86.4747 184.355C91.9953 184.355 97.5692 183.29 102.872 181.093L265.347 113.683C269.204 112.085 272.207 109.082 273.802 105.225C275.13 102.02 275.289 98.5566 274.409 95.2604C273.98 95.4855 273.583 95.7551 273.13 95.9426Z" fill="#08397B"/>
<path d="M199.85 153.406L149.319 174.336L141.506 155.283L191.995 134.369C195.998 132.711 200.585 134.627 202.221 138.639L204.078 143.196C205.73 147.184 203.837 151.754 199.85 153.406Z" fill="#8A8895"/>
<path d="M238.309 103.428C237.295 103.428 236.28 103 235.578 102.257C234.834 101.555 234.403 100.536 234.403 99.483C234.403 98.4682 234.834 97.4495 235.578 96.7473C236.982 95.3014 239.641 95.3014 241.083 96.7473C241.826 97.4495 242.216 98.4677 242.216 99.483C242.216 100.536 241.826 101.555 241.083 102.257C240.381 103 239.366 103.428 238.309 103.428Z" fill="#08397B"/>
<path d="M119.235 152.731C118.179 152.731 117.164 152.342 116.462 151.598C115.718 150.896 115.329 149.881 115.329 148.824C115.329 147.809 115.718 146.795 116.462 146.05C117.907 144.642 120.524 144.604 121.97 146.088C122.711 146.794 123.141 147.809 123.141 148.824C123.141 149.881 122.71 150.857 121.97 151.598C121.265 152.342 120.25 152.731 119.235 152.731Z" fill="#08397B"/>
<path d="M108.374 157.225C107.359 157.225 106.344 156.794 105.638 156.092C104.898 155.348 104.467 154.333 104.467 153.318C104.467 152.3 104.898 151.285 105.638 150.544C107.046 149.098 109.701 149.098 111.147 150.544C111.891 151.285 112.28 152.3 112.28 153.318C112.28 154.333 111.891 155.348 111.147 156.092C110.445 156.832 109.43 157.225 108.374 157.225Z" fill="#08397B"/>
<path d="M227.49 107.884C226.475 107.884 225.456 107.491 224.716 106.751C224.014 106.045 223.583 105.031 223.583 103.977C223.583 102.959 224.014 101.944 224.754 101.203C226.2 99.7955 228.817 99.7575 230.263 101.203C231.007 101.944 231.396 102.959 231.396 103.977C231.396 104.992 231.007 106.007 230.263 106.751C229.519 107.491 228.543 107.884 227.49 107.884Z" fill="#08397B"/>
<path d="M210.527 114.305C209.467 112.813 207.513 112.252 205.846 112.958L133.66 142.858C132.833 143.201 132.145 143.819 131.718 144.609L93.4027 215.452C92.617 216.906 92.8304 218.698 93.9409 219.927C94.6963 220.766 95.757 221.217 96.8406 221.217C97.3441 221.217 97.8515 221.121 98.3364 220.919L130.819 207.463C131.36 207.238 131.845 206.895 132.234 206.456L210.253 119.169C211.47 117.811 211.585 115.793 210.527 114.305Z" fill="#B8BAC0"/>
<path d="M266.325 83.6794L254.005 88.7816C252.013 89.6059 251.067 91.8908 251.891 93.8862C252.513 95.3893 253.97 96.2976 255.5 96.2976C256 96.2976 256.508 96.2024 256.996 96.0002L271.956 89.8047C270.464 87.4172 268.55 85.3749 266.325 83.6794Z" fill="#08397B"/>
</g>
</svg>
